HIERARCHY
ROOT Hips
{
	OFFSET 0.000000 0.000000 0.000000 
	CHANNELS 6 Xposition Yposition Zposition Yrotation Zrotation Xrotation 
	JOINT Lumbar
	{
		OFFSET 0.000000 0.000000 0.000000 
		CHANNELS 3 Zrotation Xrotation Yrotation
		JOINT Neck
		{
			OFFSET 0.000000 0.445665 0.000000 
			CHANNELS 3 Zrotation Xrotation Yrotation
			End Site
			{
				OFFSET 0.000000 0.227535 0.000000 
			}
		}
		JOINT RightShoulder
		{
			OFFSET 0.019635 0.377685 0.194865 
			CHANNELS 3 Zrotation Xrotation Yrotation
			JOINT RightElbow
			{
				OFFSET 0.000000 -0.243375 0.000000 
				CHANNELS 2 Zrotation Yrotation
				JOINT RightWrist
				{
					OFFSET 0.000000 -0.264825 0.000000 
					CHANNELS 2 Zrotation Xrotation
					End Site
					{
						OFFSET 0.006600 -0.176220 0.000990 
					}
				}
			}
		}
		JOINT LeftShoulder
		{
			OFFSET 0.019635 0.377685 -0.194865 
			CHANNELS 3 Zrotation Xrotation Yrotation
			JOINT LeftElbow
			{
				OFFSET 0.000000 -0.243375 0.000000 
				CHANNELS 2 Zrotation Yrotation
				JOINT LeftWrist
				{
					OFFSET 0.000000 -0.264825 0.000000 
					CHANNELS 2 Zrotation Xrotation
					End Site
					{
						OFFSET 0.006600 -0.176220 -0.000990 
					}
				}
			}
		}
	}
	JOINT RightHip
	{
		OFFSET 0.052140 -0.069960 0.075570 
		CHANNELS 3 Zrotation Xrotation Yrotation
		JOINT RightKnee
		{
			OFFSET 0.000000 -0.402270 0.000000 
			CHANNELS 1 Zrotation
			JOINT RightAnkle
			{
				OFFSET 0.000000 -0.404085 0.000000 
				CHANNELS 3 Zrotation Xrotation Yrotation
				End Site
				{
					OFFSET 0.204105 -0.089430 0.008415 
				}
			}
		}
	}
	JOINT LeftHip
	{
		OFFSET 0.052140 -0.069960 -0.075570 
		CHANNELS 3 Zrotation Xrotation Yrotation
		JOINT LeftKnee
		{
			OFFSET 0.000000 -0.402270 0.000000 
			CHANNELS 1 Zrotation
			JOINT LeftAnkle
			{
				OFFSET 0.000000 -0.404085 0.000000 
				CHANNELS 3 Zrotation Xrotation Yrotation
				End Site
				{
					OFFSET 0.204105 -0.089430 -0.008415 
				}
			}
		}
	}
}
MOTION
Frames: 16
Frame Time: 0.02
-0.00195 0.00022 0.00077 -159.75803 -41.22386 -1.40201 48.76114 1.77129 -4.53492 12.15952 -0.25363 -0.85317 7.81002 -6.86512 14.00418 25.23064 123.32235 14.11634 8.14771 10.24284 11.4282 -32.94847 46.68222 -55.80297 -8.99598 3.21512 44.40547 0.13365 -10.59842 -19.09631 -6.24928 -1.4651 -2.92691 47.95233 2.98717 7.84872 -24.87895 -6.49749 1.47935 2.94761
-0.00215 8e-05 0.00108 -159.73417 -41.27553 -1.41222 48.79602 1.79623 -4.64852 11.61648 -0.19031 -0.85528 5.53542 -7.19734 11.16938 24.98187 119.76663 12.9723 7.45461 6.27388 11.24707 -29.14521 46.20783 -63.64078 -5.74856 2.16528 44.41529 0.12045 -10.63451 -19.07854 -6.24848 -1.46848 -2.92929 47.9735 3.00342 7.99871 -24.86905 -6.5049 1.46878 2.94323
-0.00236 -6e-05 0.00139 -159.7104 -41.32704 -1.42243 48.83088 1.82113 -4.76165 11.07418 -0.12712 -0.85739 3.26512 -7.52918 8.34235 24.73414 116.22227 11.83222 6.7636 2.3131 11.06862 -25.35623 45.73527 -71.4469 -2.51321 1.12001 44.425 0.1073 -10.6706 -19.06079 -6.2477 -1.47182 -2.93165 47.99451 3.01964 8.14824 -24.85915 -6.51229 1.45825 2.93887
-0.00256 -0.00021 0.00171 -159.68662 -41.37855 -1.43261 48.86566 1.846 -4.87489 10.53266 -0.06399 -0.8595 0.99705 -7.8605 5.51612 24.48619 112.67758 10.69177 6.07263 -1.64436 10.88847 -21.56528 45.2624 -79.25912 0.72383 0.07366 44.43477 0.09414 -10.7066 -19.04307 -6.24691 -1.47518 -2.93402 48.0156 3.03585 8.29777 -24.84927 -6.51969 1.44771 2.9345
-0.00277 -0.00035 0.00202 -159.66274 -41.43024 -1.44278 48.90043 1.87089 -4.98864 9.99076 -0.00076 -0.8616 -1.27422 -8.19193 2.68248 24.23708 109.12134 9.54718 5.37957 -5.6083 10.70462 -17.7586 44.78757 -87.10645 3.97384 -0.97788 44.4447 0.08095 -10.74254 -19.02535 -6.2461 -1.47859 -2.93641 48.03687 3.0521 8.44775 -24.8394 -6.5271 1.43713 2.93012
-0.00297 -0.00049 0.00233 -159.63921 -41.48135 -1.45306 48.93548 1.8958 -5.10044 9.44766 0.06233 -0.86371 -3.54226 -8.52457 -0.13046 23.99223 105.60215 8.41664 4.69294 -9.56208 10.53738 -14.00676 44.31978 -94.8259 7.17826 -2.00998 44.45393 0.06788 -10.77895 -19.00755 -6.24537 -1.48178 -2.93871 48.05735 3.06823 8.59632 -24.82943 -6.53445 1.4267 2.92581
-0.00317 -0.00063 0.00264 -159.61502 -41.53357 -1.46312 48.96994 1.92066 -5.21607 8.90755 0.12565 -0.86582 -5.81446 -8.85451 -2.98187 23.73916 102.01259 7.25919 3.99418 -13.53226 10.33756 -10.15024 43.83837 -102.792 10.47032 -3.07968 44.46455 0.05457 -10.81439 -18.98991 -6.24449 -1.4854 -2.9412 48.0794 3.08458 8.74758 -24.81968 -6.54193 1.41598 2.92134
-0.00338 -0.00077 0.00295 -159.59137 -41.58476 -1.47337 49.00493 1.94556 -5.32812 8.36476 0.18875 -0.86793 -8.08252 -9.18675 -5.79794 23.49355 98.48733 6.12632 3.3065 -17.48677 10.16657 -6.38744 43.36946 -110.53455 13.68259 -4.1154 44.47389 0.04149 -10.85072 -18.97214 -6.24374 -1.48864 -2.94351 48.10001 3.10073 8.89633 -24.80973 -6.54928 1.40553 2.91702
-0.00359 -0.00091 0.00326 -159.56867 -41.63475 -1.48392 49.04064 1.97052 -5.43602 7.81797 0.25164 -0.87005 -10.3482 -9.52282 -8.57162 23.25748 95.0416 5.02403 2.63251 -21.42669 10.03596 -2.74924 42.91596 -117.99027 16.79426 -5.10703 44.48165 0.02866 -10.88817 -18.95416 -6.24318 -1.49137 -2.94558 48.11881 3.11666 9.04219 -24.7995 -6.55648 1.39538 2.91288
-0.00377 -0.00106 0.00359 -159.54138 -41.69179 -1.49293 49.07241 1.99517 -5.56848 7.29195 0.31591 -0.87212 -12.63575 -9.83993 -11.59174 22.96776 91.14103 3.74737 1.88013 -25.46444 9.68849 1.57572 42.37418 -127.05561 20.47559 -6.34465 44.49845 0.01431 -10.91926 -18.93724 -6.24161 -1.4969 -2.94896 48.14786 3.13392 9.20524 -24.79078 -6.56458 1.38344 2.90772
-0.00401 -0.00118 0.00387 -159.52321 -41.73389 -1.50508 49.11235 2.02046 -5.64868 6.7237 0.37715 -0.87429 -14.87147 -10.19497 -14.08995 22.79045 88.19856 2.83764 1.29295 -29.28618 9.78845 4.47099 42.01838 -132.75121 22.96086 -7.06828 44.49624 0.00319 -10.96371 -18.91819 -6.24212 -1.4966 -2.94962 48.15541 3.14833 9.33165 -24.77894 -6.57077 1.37531 2.90471
-0.00443 -0.00119 0.00401 -159.53465 -41.73514 -1.52662 49.1759 2.04762 -5.58764 6.02544 0.43074 -0.87671 -17.01012 -10.67244 -15.15844 22.93103 87.92345 2.95267 1.16533 -32.58817 11.21298 3.24258 42.18046 -128.89044 22.08356 -6.32609 44.44076 0.00081 -11.04559 -18.89216 -6.24873 -1.47951 -2.94242 48.10235 3.15519 9.35926 -24.75775 -6.57177 1.37742 2.90769
-0.00489 -0.00116 0.00411 -159.5543 -41.72136 -1.55113 49.24736 2.07538 -5.47379 5.28772 0.48108 -0.87921 -19.08717 -11.18458 -15.70193 23.18274 88.60363 3.43285 1.20258 -35.65798 13.06949 0.61305 42.52793 -121.70219 20.01992 -5.07786 44.36645 0.00167 -11.14066 -18.8642 -6.25735 -1.45674 -2.93255 48.02806 3.15908 9.34963 -24.73355 -6.57087 1.38338 2.91282
-0.00533 -0.00115 0.00423 -159.56731 -41.71435 -1.57382 49.31451 2.10278 -5.38262 4.57682 0.53258 -0.88168 -21.16452 -11.66893 -16.48471 23.37739 88.82124 3.73425 1.16018 -38.78875 14.66437 -1.24094 42.78564 -116.24021 18.55204 -4.09764 44.30142 0.00114 -11.22928 -18.83783 -6.26478 -1.43707 -2.92414 47.96448 3.16423 9.35608 -24.71121 -6.57081 1.38773 2.91694
-0.00579 -0.00114 0.00434 -159.59296 -41.70754 -1.59864 49.38499 2.1306 -5.29667 3.82689 0.58576 -0.88416 -23.36373 -12.20427 -17.2655 23.59989 89.15944 4.09055 1.13753 -42.11459 16.53337 -3.67262 43.06691 -109.87242 16.84374 -2.95662 44.23307 0.00035 -11.32016 -18.80841 -6.27338 -1.41513 -2.91468 47.89613 3.16999 9.36657 -24.68679 -6.57081 1.39155 2.92121
-0.0062 -0.00112 0.00445 -159.59379 -41.69677 -1.61954 49.45005 2.15764 -5.18765 3.15071 0.63425 -0.88662 -25.28818 -12.64151 -17.92346 23.7908 89.47464 4.41911 1.11348 -44.96973 17.93694 -5.24706 43.34314 -104.59671 15.35376 -2.02955 44.16743 0.00079 -11.40905 -18.78491 -6.28002 -1.39665 -2.90679 47.83298 3.17349 9.35912 -24.66601 -6.57025 1.39732 2.92567
